Coordinates
version=1
nRows=19
nColumns=24
inDegrees=yes

Units are S.I. units (second, meters, Newtons, ...)
Angles are in degrees.

endheader
time	pelvis_tilt	pelvis_list	pelvis_rotation	pelvis_tx	pelvis_ty	pelvis_tz	hip_flexion_r	hip_adduction_r	hip_rotation_r	knee_angle_r	ankle_angle_r	subtalar_angle_r	mtp_angle_r	hip_flexion_l	hip_adduction_l	hip_rotation_l	knee_angle_l	ankle_angle_l	subtalar_angle_l	mtp_angle_l	lumbar_extension	lumbar_bending	lumbar_rotation
      5.20000000	     -8.51062695	     -6.18606450	      1.91078175	     -1.37656556	      0.00199974	     -0.28595915	     11.50375697	     10.97694343	      3.77272268	    -10.40211260	     18.86116161	      7.17369404	    -51.47051585	     25.68552813	     -9.90541391	     -1.11194730	    -62.61025575	    -13.51228383	     -7.21395977	     22.12497028	      8.26650136	      5.74940699	      1.51029675
      5.20500000	     -8.44397421	     -6.02488016	      1.58987818	     -1.37197360	      0.00233736	     -0.28517218	     10.93923812	     10.92093139	      4.17075066	    -10.12761115	     18.89928020	      7.12968072	    -51.30996372	     26.14556380	     -9.77516318	     -1.46430442	    -62.21059269	    -12.89241960	     -7.25232104	     22.06342924	      8.05723182	      5.64027297	      1.97858723
      5.21000000	     -8.45906889	     -5.82516746	      1.40060527	     -1.36731246	      0.00257959	     -0.28455294	     10.46213725	     10.77893708	      4.36298453	     -9.83869633	     19.03817981	      7.16777287	    -51.20830830	     26.70435879	     -9.52300168	     -1.66657947	    -61.72980173	    -12.37310965	     -7.24549054	     22.12115510	      7.97789012	      5.45330683	      2.25998280
      5.21500000	     -8.37664446	     -5.67619930	      1.10287453	     -1.36271103	      0.00286300	     -0.28381654	      9.87802718	     10.71484416	      4.69585062	     -9.54951713	     19.09392797	      7.17738225	    -51.03556737	     27.11670200	     -9.39812764	     -1.98437427	    -61.19325915	    -11.76983954	     -7.18459538	     22.09855269	      7.76632381	      5.35139801	      2.68948628
      5.22000000	     -8.38430397	     -5.49469887	      0.93666655	     -1.35812986	      0.00301068	     -0.28328090	      9.41175403	     10.57762391	      4.85782355	     -9.27692036	     19.24271608	      7.20830989	    -50.92396488	     27.64749018	     -9.14758208	     -2.14537998	    -60.59097763	    -11.25789001	     -7.13582119	     22.16381180	      7.67243368	      5.18508722	      2.94315903
      5.22500000	     -8.35281494	     -5.33449835	      0.71188822	     -1.35355504	      0.00315865	     -0.28268896	      8.90539500	     10.47016970	      5.05724732	     -9.01262929	     19.37919278	      7.27192443	    -50.80565435	     28.09861868	     -8.95747662	     -2.35824596	    -59.92078900	    -10.72154548	     -7.02777862	     22.23725045	      7.52991534	      5.05303304	      3.27236051
      5.23000000	     -8.25916576	     -5.20375327	      0.47160934	     -1.34902761	      0.00331861	     -0.28211479	      8.33636494	     10.39367423	      5.31199174	     -8.75224890	     19.47182014	      7.30388669	    -50.64377559	     28.46102116	     -8.80617380	     -2.57181278	    -59.19101683	    -10.15187138	     -6.89887902	     22.26932776	      7.30761844	      4.96068834	      3.60586458
      5.23500000	     -8.26208939	     -5.05884825	      0.32787633	     -1.34444513	      0.00333639	     -0.28164972	      7.87403273	     10.28112318	      5.43679872	     -8.48326557	     19.62018399	      7.32496534	    -50.53529757	     28.93858003	     -8.58056579	     -2.67524215	    -58.40511942	     -9.70250579	     -6.79810304	     22.32340552	      7.22405510	      4.82486361	      3.83539535
      5.24000000	     -8.14792261	     -4.93403032	      0.08015346	     -1.33990795	      0.00344808	     -0.28112578	      7.28852186	     10.20169731	      5.68805150	     -8.22914414	     19.70788004	      7.34556266	    -50.34600459	     29.22978278	     -8.43869671	     -2.87800975	    -57.54385265	     -9.16147733	     -6.59970269	     22.33836308	      6.98830320	      4.75010049	      4.18536255
      5.24500000	     -8.09751998	     -4.80384586	     -0.11270502	     -1.33536700	      0.00344064	     -0.28067474	      6.78722772	     10.10519155	      5.89553029	     -7.99881865	     19.83467753	      7.34744314	    -50.16326470	     29.58833086	     -8.25056325	     -3.00022880	    -56.62834072	     -8.68447410	     -6.43004895	     22.34237343	      6.83534948	      4.64975782	      4.45558394
      5.25000000	     -8.04166256	     -4.68295765	     -0.31065028	     -1.33085347	      0.00340684	     -0.28025240	      6.29606273	     10.01610477	      6.09953125	     -7.79226965	     19.94655944	      7.33418436	    -49.97734763	     29.91625029	     -8.06925702	     -3.10464315	    -55.64866159	     -8.22417851	     -6.26017061	     22.32080967	      6.67165704	      4.56276650	      4.73574604
      5.25500000	     -8.07908425	     -4.58372071	     -0.43854970	     -1.32631218	      0.00321562	     -0.27996447	      5.91790476	      9.93380767	      6.21087773	     -7.60175341	     20.12744860	      7.34469269	    -49.88627821	     30.35362847	     -7.85880223	     -3.10105317	    -54.62703017	     -7.87520581	     -6.15715672	     22.33374099	      6.63335923	      4.49236299	      4.92558284
      5.26000000	     -7.97335375	     -4.46387059	     -0.71770122	     -1.32180139	      0.00314809	     -0.27944982	      5.39669916	      9.85412556	      6.50224587	     -7.45635204	     20.29333581	      7.34424807	    -49.72074651	     30.55183685	     -7.73841181	     -3.28077924	    -53.52118943	     -7.40591541	     -5.93845529	     22.27613715	      6.41014343	      4.41316953	      5.26232628
      5.26500000	     -7.89567342	     -4.35981672	     -0.93549123	     -1.31727594	      0.00305444	     -0.27910629	      4.89970514	      9.77431105	      6.78625138	     -7.28570571	     20.38086113	      7.25715728	    -49.53418292	     30.77272052	     -7.57613648	     -3.34770651	    -52.36329318	     -7.02209360	     -5.76128482	     22.07821602	      6.22772117	      4.35909348	      5.57225950
      5.27000000	     -7.93966585	     -4.27250042	     -1.08792647	     -1.31278336	      0.00276234	     -0.27884125	      4.57651142	      9.70729095	      6.93261203	     -7.18291985	     20.55502520	      7.21617398	    -49.42701734	     31.13190381	     -7.38627498	     -3.29836733	    -51.15995049	     -6.73026981	     -5.64330879	     21.99363578	      6.18547751	      4.30231761	      5.76569830
      5.27500000	     -7.81249370	     -4.18043955	     -1.37120797	     -1.30826385	      0.00263443	     -0.27841515	      4.04545816	      9.64974363	      7.32252518	     -7.06081702	     20.63644689	      7.05670191	    -49.17438833	     31.23162443	     -7.29028515	     -3.43457485	    -49.89977702	     -6.32699668	     -5.46992279	     21.59001960	      5.94483118	      4.26415643	      6.16240041
      5.28000000	     -7.79905224	     -4.09044726	     -1.61454031	     -1.30373048	      0.00237078	     -0.27809896	      3.65479322	      9.58136012	      7.66200720	     -6.96750040	     20.73362994	      6.94504277	    -48.91025820	     31.44335912	     -7.16022026	     -3.47786565	    -48.59000362	     -6.01398899	     -5.31304431	     21.19309836	      5.84095476	      4.22780501	      6.45265352
      5.28500000	     -7.78407875	     -4.01121459	     -1.84808725	     -1.29920572	      0.00206979	     -0.27779531	      3.27653675	      9.52533883	      7.98327821	     -6.89816857	     20.82718713	      6.80818541	    -48.62907687	     31.63041817	     -7.03792917	     -3.49371407	    -47.23128129	     -5.72638115	     -5.18967423	     20.74695983	      5.73308128	      4.19669409	      6.73891875
      5.29000000	     -7.78256969	     -3.93943522	     -2.08137390	     -1.29468304	      0.00172470	     -0.27750566	      2.92585309	      9.47684236	      8.30736026	     -6.85431408	     20.91883313	      6.66109671	    -48.33234022	     31.80672168	     -6.92629434	     -3.49432275	    -45.82558045	     -5.46480310	     -5.08625527	     20.24741035	      5.63914869	      4.17402447	      7.03169643
